<?xml version="1.0" standalone="no"?>
<!DOCTYPE svg PUBLIC "-//W3C//DTD SVG 20010904//EN"
 "http://www.w3.org/TR/2001/REC-SVG-20010904/DTD/svg10.dtd">
<svg version="1.0" xmlns="http://www.w3.org/2000/svg"
 width="1280.000000pt" height="1043.000000pt" viewBox="0 0 1280.000000 1043.000000"
 preserveAspectRatio="xMidYMid meet">
<metadata>
Created by potrace 1.15, written by Peter Selinger 2001-2017
</metadata>
<g transform="translate(0.000000,1043.000000) scale(0.100000,-0.100000)"
fill="#000000" stroke="none">
<path d="M0 10260 c0 -93 2 -170 5 -170 3 0 19 29 35 65 28 63 94 169 142 228
31 39 15 47 -94 47 l-88 0 0 -170z"/>
<path d="M12513 10403 c65 -69 201 -340 226 -453 18 -81 31 -279 38 -590 l8
-305 6 210 c3 116 7 425 8 688 l1 477 -157 0 -157 0 27 -27z"/>
<path d="M6430 10044 c-19 -9 -163 -59 -320 -111 -289 -96 -346 -119 -370
-147 -7 -9 -17 -60 -22 -114 -15 -158 -71 -250 -181 -303 -75 -35 -138 -43
-217 -29 -88 16 -135 43 -173 98 -18 25 -48 64 -69 86 l-36 40 -99 -23 c-126
-30 -378 -113 -443 -146 -27 -14 -53 -33 -58 -42 -5 -10 -12 -58 -14 -108 -6
-119 -31 -178 -109 -249 -70 -65 -135 -91 -230 -90 -91 0 -181 44 -241 116
-75 91 -105 118 -130 118 -33 0 -535 -170 -559 -189 -20 -17 -39 -95 -39 -166
0 -113 -78 -230 -182 -275 -44 -19 -65 -22 -142 -18 -144 7 -224 52 -273 155
-40 83 -78 89 -248 36 -139 -43 -379 -135 -398 -152 -30 -26 -36 -44 -47 -141
-13 -118 -40 -179 -102 -235 -62 -56 -130 -80 -228 -80 -115 0 -192 41 -276
147 -71 91 -74 92 -179 64 -104 -28 -398 -128 -553 -188 -113 -44 -152 -72
-152 -111 0 -46 122 -437 182 -584 l29 -71 147 1 c135 2 151 0 199 -22 124
-56 181 -194 138 -337 -20 -66 -63 -116 -143 -164 -83 -49 -94 -58 -116 -92
-22 -33 -19 -46 40 -224 87 -264 114 -318 177 -351 26 -13 31 -13 48 3 16 14
32 16 101 12 94 -6 144 -24 203 -72 157 -129 116 -368 -82 -474 -82 -43 -97
-62 -95 -120 2 -87 113 -418 157 -470 23 -27 25 -27 152 -27 146 -1 205 -15
267 -67 83 -68 110 -201 62 -303 -29 -61 -65 -97 -176 -172 -46 -32 -88 -65
-93 -74 -11 -17 106 -386 148 -469 38 -74 40 -75 204 -75 162 0 176 -4 244
-70 73 -71 99 -158 73 -248 -23 -77 -72 -136 -171 -201 -47 -31 -91 -68 -97
-82 -9 -19 -8 -41 7 -102 24 -104 80 -281 117 -370 35 -84 40 -87 161 -80 260
16 379 -76 365 -281 -8 -114 -59 -179 -197 -253 -75 -41 -86 -64 -71 -141 18
-94 118 -387 153 -451 18 -32 44 -65 60 -74 26 -16 30 -16 75 2 66 26 419 142
467 154 22 5 74 23 115 40 41 17 87 34 102 37 39 8 49 33 58 155 11 161 55
230 180 289 45 21 70 25 140 26 134 0 188 -29 273 -145 23 -30 48 -61 56 -68
24 -19 117 -6 186 27 33 16 92 36 130 45 137 33 285 88 304 112 14 17 20 49
25 130 8 126 20 158 78 215 62 61 154 101 244 107 40 2 84 2 98 -2 35 -9 161
-129 193 -183 l25 -43 61 0 c45 0 90 10 162 36 184 65 399 134 415 134 9 0 26
-10 38 -23 72 -77 67 -233 -9 -304 -13 -12 -50 -34 -81 -48 -49 -22 -68 -25
-136 -23 -93 3 -108 -5 -140 -80 -38 -88 -100 -400 -89 -444 9 -35 63 -55 312
-118 212 -54 392 -87 418 -77 9 3 29 27 45 53 77 131 118 161 231 171 87 7
153 -14 215 -68 66 -58 86 -96 95 -184 14 -122 19 -125 323 -195 255 -58 269
-56 317 44 41 83 140 136 257 136 78 0 124 -21 194 -88 46 -45 80 -118 80
-174 0 -11 5 -39 11 -63 10 -40 15 -45 58 -59 79 -27 417 -96 465 -96 50 0 52
2 109 100 39 66 85 94 179 110 184 31 318 -70 335 -255 11 -116 39 -131 398
-200 194 -38 187 -40 231 46 35 69 69 105 129 135 100 48 231 22 328 -65 52
-47 67 -80 74 -164 3 -40 10 -80 15 -90 13 -26 76 -50 221 -86 316 -78 520
-108 544 -80 22 26 103 420 103 499 0 47 -24 80 -59 80 -62 0 -188 85 -220
149 -46 90 -35 171 34 237 57 55 117 74 248 81 105 6 108 7 122 33 18 36 74
305 82 397 7 88 5 92 -96 143 -128 64 -191 143 -191 240 0 58 18 100 64 148
43 47 63 53 205 61 143 8 148 12 177 109 31 106 64 287 64 353 0 77 -3 81
-106 132 -94 47 -132 81 -160 142 -42 89 -24 175 51 248 65 63 106 77 222 74
80 -2 105 1 116 13 28 29 99 290 113 410 11 97 5 106 -94 152 -119 55 -141 72
-170 137 -49 108 -26 219 60 281 54 39 104 53 208 55 117 3 114 2 132 33 22
37 72 237 94 375 17 107 17 108 -3 129 -11 11 -63 41 -114 67 -104 52 -141 89
-160 163 -24 90 25 214 103 258 29 16 66 23 158 30 66 5 129 14 140 20 23 12
49 94 96 304 37 168 49 253 40 290 -9 38 -72 62 -302 115 -392 91 -431 90
-493 -14 -90 -149 -272 -187 -407 -85 -87 66 -105 96 -120 208 -7 53 -13 98
-13 100 -5 24 -347 110 -474 119 -89 7 -103 -1 -142 -78 -50 -97 -144 -145
-266 -137 -158 12 -269 122 -269 268 0 57 -14 85 -52 102 -47 22 -403 101
-461 102 -53 1 -65 -9 -140 -114 -18 -24 -55 -58 -82 -75 -44 -27 -57 -30
-129 -30 -92 1 -147 20 -210 75 -52 46 -77 101 -88 195 -5 44 -14 85 -21 92
-26 26 -412 113 -502 113 -48 0 -54 -5 -133 -120 -24 -36 -52 -63 -82 -78 -41
-21 -54 -23 -134 -18 -105 7 -161 30 -206 84 -44 53 -79 129 -86 187 -5 36
-17 64 -44 100 -46 62 -58 84 -76 145 -8 27 -29 63 -46 81 -30 30 -34 31 -82
23 -28 -5 -91 -8 -141 -8 -78 0 -97 3 -141 26 -63 33 -120 98 -135 152 -13 48
-5 141 16 192 19 47 121 146 189 184 88 50 91 56 72 142 -24 108 -103 344
-139 418 -41 83 -58 92 -145 73 -117 -25 -242 -2 -315 58 -61 50 -72 80 -72
194 0 86 3 105 22 136 36 58 138 148 198 174 67 30 79 53 65 127 -14 70 -95
334 -131 426 -77 195 -110 225 -199 186z m9 -240 c31 -39 91 -258 91 -330 0
-18 -23 -50 -79 -108 -142 -148 -186 -244 -179 -394 5 -135 47 -214 171 -319
88 -76 131 -93 257 -103 59 -4 116 -13 128 -19 31 -17 53 -63 77 -166 l22 -90
-98 -103 c-201 -211 -228 -359 -108 -599 27 -53 49 -103 49 -110 0 -7 -11 -51
-25 -98 -30 -105 -93 -414 -97 -472 -1 -23 1 -46 5 -50 4 -4 47 -28 95 -53 70
-37 93 -55 119 -94 42 -62 56 -117 50 -190 -10 -113 -92 -186 -209 -186 l-57
0 -251 763 c-511 1550 -544 1647 -570 1647 -16 0 -515 -161 -1080 -350 -113
-37 -259 -84 -325 -105 -66 -20 -379 -121 -695 -225 -316 -104 -771 -252
-1010 -330 -747 -243 -979 -321 -985 -331 -12 -18 106 -381 815 -2514 318
-957 600 -1806 625 -1887 31 -99 53 -153 67 -162 26 -18 73 -7 328 79 107 36
346 113 530 171 184 58 490 157 680 219 956 315 1150 375 1212 375 48 0 132
-46 183 -101 90 -96 95 -218 11 -304 -51 -53 -111 -73 -248 -82 -54 -3 -102
-11 -106 -17 -5 -6 -16 -40 -26 -76 -9 -36 -38 -141 -63 -234 -54 -195 -32
-172 -225 -229 l-116 -35 -90 82 c-101 92 -120 101 -265 118 -198 23 -336 -20
-458 -141 -75 -75 -121 -156 -149 -265 -10 -39 -21 -79 -25 -88 -7 -19 -66
-43 -204 -84 l-90 -27 -36 29 c-136 109 -215 147 -341 165 -105 14 -223 -7
-329 -60 -131 -65 -207 -161 -266 -338 -17 -52 -41 -105 -53 -118 -15 -17 -79
-44 -215 -90 -106 -36 -204 -65 -217 -65 -40 0 -91 112 -110 243 -6 46 -5 49
31 80 168 143 234 273 223 438 -7 91 -51 182 -125 260 -77 81 -164 124 -307
149 -80 14 -115 25 -132 41 -33 31 -64 120 -64 182 0 63 21 97 97 156 65 51
99 109 119 202 19 89 14 221 -12 293 -41 117 -228 250 -385 276 -41 7 -92 15
-114 19 l-39 7 -37 114 -36 115 41 48 c210 246 216 257 216 392 0 138 -41 226
-159 338 -76 73 -120 92 -266 117 -64 11 -121 23 -127 26 -14 9 -52 96 -77
177 l-21 68 93 92 c99 98 137 157 162 252 20 79 19 140 -5 216 -26 84 -76 157
-153 220 -100 84 -143 99 -358 124 l-46 6 -32 102 c-48 157 -47 158 59 272
117 127 152 195 158 309 14 258 -171 455 -457 487 -51 6 -92 16 -103 25 -20
19 -69 151 -99 267 l-21 81 29 27 c36 31 348 138 430 146 51 6 52 5 74 -31 12
-20 26 -35 32 -33 5 1 21 -8 34 -20 12 -13 62 -43 111 -66 84 -41 90 -42 182
-41 253 4 480 159 544 370 49 164 70 194 142 204 27 4 75 17 108 29 35 14 69
20 85 16 15 -3 60 -35 101 -70 89 -79 150 -109 256 -125 134 -20 278 11 384
82 114 76 224 240 237 351 11 96 42 128 133 140 25 3 72 18 104 33 70 32 79
29 175 -55 134 -118 345 -157 524 -97 95 32 138 58 205 127 89 90 132 166 143
251 12 86 28 114 75 134 51 21 215 64 245 64 17 0 51 -20 95 -55 88 -70 155
-102 241 -115 88 -12 206 -12 263 1 176 41 329 194 376 380 30 118 56 147 156
172 35 9 81 25 103 37 21 11 53 20 70 20 16 1 55 12 85 25 71 31 94 31 119 -1z
m716 -2569 c88 -25 169 -52 182 -60 14 -10 29 -39 43 -85 72 -242 356 -370
625 -281 77 25 94 36 149 89 75 75 99 85 168 72 79 -15 174 -49 191 -68 8 -9
18 -36 22 -59 13 -80 82 -174 185 -252 39 -29 164 -70 239 -77 116 -12 270 46
382 144 l63 54 63 -6 c80 -8 185 -41 205 -63 9 -10 19 -34 23 -53 15 -69 72
-159 148 -230 107 -100 353 -142 477 -82 103 50 157 85 190 123 44 51 88 59
194 34 112 -26 130 -40 155 -122 35 -113 136 -219 269 -279 65 -30 85 -34 156
-34 172 0 251 29 362 132 63 58 79 68 109 68 40 0 221 -39 327 -70 81 -25 80
-22 43 -180 -36 -147 -48 -166 -119 -174 -122 -16 -285 -127 -351 -240 -59
-101 -41 -287 37 -397 18 -26 70 -76 114 -112 45 -36 84 -74 86 -85 6 -23 -33
-187 -49 -203 -5 -5 -39 -17 -74 -25 -86 -20 -214 -83 -271 -134 -30 -26 -59
-66 -80 -108 -31 -62 -33 -74 -33 -167 0 -97 2 -104 38 -177 41 -85 129 -175
180 -185 56 -11 70 -68 43 -171 -22 -81 -38 -100 -93 -107 -133 -18 -217 -59
-298 -146 -124 -133 -139 -333 -35 -484 34 -49 130 -139 171 -161 40 -20 43
-45 17 -148 l-23 -89 -90 -18 c-236 -47 -360 -179 -372 -394 -8 -140 48 -242
194 -353 l78 -58 -2 -57 c-2 -64 -32 -140 -60 -155 -10 -5 -42 -12 -72 -15
-67 -8 -185 -63 -239 -112 -85 -76 -127 -188 -120 -319 3 -59 11 -93 28 -126
23 -44 167 -196 224 -236 l29 -20 -12 -64 c-7 -36 -17 -87 -23 -113 l-10 -48
-41 6 c-68 11 -258 54 -312 72 -67 21 -81 35 -105 108 -64 191 -246 315 -465
315 -133 0 -241 -49 -362 -163 l-52 -49 -106 31 c-59 16 -117 37 -130 45 -13
9 -34 44 -49 83 -14 37 -35 81 -46 98 -62 94 -188 180 -301 205 -32 7 -95 11
-146 8 -123 -6 -219 -50 -309 -144 l-64 -65 -100 22 c-133 30 -155 44 -191
127 -48 107 -51 113 -106 172 -170 184 -482 201 -662 36 -79 -72 -101 -86
-141 -86 -51 0 -190 37 -211 56 -10 9 -27 44 -39 79 -70 211 -264 335 -503
322 -122 -6 -208 -48 -300 -147 l-66 -70 -208 48 -208 48 -3 44 c-2 23 2 73 8
110 15 87 34 105 136 131 111 28 160 54 230 123 79 80 108 148 108 261 0 69
-4 91 -34 160 -18 44 -44 89 -56 100 -12 11 -56 49 -97 85 -46 39 -76 73 -76
85 -1 34 39 179 53 193 8 8 46 20 86 28 91 17 184 60 239 109 24 22 56 68 78
112 32 64 36 82 36 146 -1 132 -73 269 -193 363 -33 26 -63 58 -67 72 -9 35 3
125 21 161 20 37 41 49 118 67 135 32 255 123 306 232 24 50 27 69 27 157 0
87 -3 107 -26 155 -28 61 -121 167 -174 200 -25 15 -36 31 -41 56 -10 52 11
174 34 196 11 11 59 31 107 44 119 34 174 64 229 125 70 78 106 161 106 246 0
153 -105 332 -228 387 -23 11 -42 23 -42 28 0 39 54 236 68 249 9 9 46 21 82
27 98 17 198 71 263 142 73 79 91 131 85 254 -7 143 -54 231 -170 317 -73 55
-88 73 -88 112 0 38 48 214 70 258 27 52 44 51 245 -6z"/>
<path d="M7532 6317 c-11 -30 -41 -150 -67 -268 -25 -118 -77 -353 -115 -524
-38 -170 -110 -501 -160 -735 -50 -234 -159 -731 -241 -1105 -199 -900 -309
-1410 -309 -1431 0 -1 24 -5 53 -9 95 -13 276 -52 772 -169 270 -63 573 -133
675 -156 102 -23 275 -64 385 -92 110 -27 286 -67 390 -89 384 -81 1356 -304
1407 -324 31 -12 21 -53 198 780 109 511 213 987 530 2420 157 711 205 943
198 950 -2 2 -64 16 -138 30 -74 15 -220 46 -325 70 -104 24 -275 62 -380 85
-287 62 -1876 412 -2155 475 -217 49 -599 130 -671 142 -25 5 -29 0 -47 -50z"/>
<path d="M0 3419 c0 -11 4 -17 10 -14 13 8 13 35 0 35 -5 0 -10 -9 -10 -21z"/>
<path d="M5 2187 c-4 -349 -5 -971 -3 -1383 5 -760 9 -828 41 -795 9 9 12 124
10 479 -2 456 -32 2324 -38 2330 -1 2 -6 -282 -10 -631z"/>
</g>
</svg>
